<?xml version="1.0"?>
<svg xmlns="http://www.w3.org/2000/svg" height="512px" viewBox="0 -3 448 447" width="512px" class=""><g><link xmlns="" type="text/css" id="dark-mode" rel="stylesheet" href="" class="active-path" style="fill:#FFFFFF" data-old_color="#FCFCFC"/><style xmlns="" type="text/css" id="dark-mode-custom-style" class="active-path" style="fill:#FFFFFF" data-old_color="#FCFCFC"/><path d="m248 96.5c0 53.019531-42.980469 96-96 96s-96-42.980469-96-96 42.980469-96 96-96 96 42.980469 96 96zm0 0" data-original="#000000" class="active-path" data-old_color="#FCFCFC" fill="#FFFFFF"/><path d="m360 272.5h-16v48h-48v16h48v48h16v-48h48v-16h-48zm0 0" data-original="#000000" class="active-path" data-old_color="#FCFCFC" fill="#FFFFFF"/><path d="m0 440.5h304v-10.808594c-.480469-.222656-.929688-.488281-1.398438-.71875-1.152343-.570312-2.28125-1.167968-3.410156-1.769531-1.304687-.695313-2.589844-1.398437-3.863281-2.144531-1.070313-.628906-2.128906-1.277344-3.199219-1.941406-1.25-.800782-2.488281-1.601563-3.703125-2.402344-1.011719-.699219-2.003906-1.410156-2.984375-2.136719-1.195312-.878906-2.402344-1.773437-3.519531-2.703125-.945313-.75-1.875-1.511719-2.785156-2.296875-1.128907-.957031-2.226563-1.941406-3.3125-2.949219-.878907-.800781-1.746094-1.601562-2.601563-2.472656-1.046875-1.039062-2.0625-2.097656-3.070312-3.199219-.816406-.871093-1.617188-1.753906-2.398438-2.648437-.96875-1.105469-1.90625-2.242188-2.824218-3.375-.753907-.929688-1.496094-1.847656-2.21875-2.800782-.886719-1.167968-1.726563-2.402343-2.566407-3.570312-.679687-.972656-1.367187-1.949219-2.015625-2.941406-.800781-1.234375-1.554687-2.488282-2.304687-3.746094-.609375-1.023438-1.222657-2.039062-1.808594-3.078125-.710937-1.289063-1.367187-2.609375-2.03125-3.921875-.535156-1.0625-1.082031-2.109375-1.601563-3.199219-.621093-1.34375-1.191406-2.71875-1.757812-4.097656-.457031-1.085937-.929688-2.167969-1.351562-3.277344-.53125-1.410156-1-2.839843-1.472657-4.265625-.367187-1.109375-.800781-2.207031-1.105469-3.328125-.4375-1.488281-.800781-3-1.191406-4.503906-.28125-1.101563-.59375-2.191406-.839844-3.304687-.351562-1.597657-.625-3.199219-.902343-4.796876-.195313-1.066406-.417969-2.113281-.578125-3.203124-.261719-1.789063-.429688-3.613282-.609375-5.429688-.085938-.914062-.222657-1.800781-.285157-2.710938-.191406-2.726562-.289062-5.480468-.289062-8.257812.007812-3.851562.214844-7.699219.617188-11.527344.136718-1.28125.390624-2.527344.566406-3.800781.351562-2.519531.703125-5.039063 1.222656-7.519531.304688-1.488282.730469-2.9375 1.105469-4.410156.558593-2.214844 1.113281-4.429688 1.808593-6.605469.488282-1.535157 1.0625-3.03125 1.601563-4.542969.75-2.050781 1.511719-4.089844 2.398437-6.097656.664063-1.519532 1.390626-3 2.121094-4.488282.933594-1.917968 1.902344-3.824218 2.941406-5.6875.800782-1.472656 1.695313-2.90625 2.585938-4.335937 1.128906-1.800781 2.289062-3.578125 3.511719-5.3125.976562-1.382813 1.976562-2.742187 3.015625-4.085937 1.3125-1.699219 2.679687-3.339844 4.089844-4.960938 1.109374-1.273438 2.222656-2.535156 3.390624-3.761719.542969-.574219 1.023438-1.191406 1.597657-1.75-25.691407-31.273437-64.101563-49.3125-104.574219-49.113281h-32c-75.074219.082031-135.9179688 60.925781-136 136zm0 0" data-original="#000000" class="active-path" data-old_color="#FCFCFC" fill="#FFFFFF"/><path d="m352 232.5c-53.019531 0-96 42.980469-96 96s42.980469 96 96 96 96-42.980469 96-96c-.035156-53.003906-42.996094-95.964844-96-96zm24 120v48h-48v-48h-48v-48h48v-48h48v48h48v48zm0 0" data-original="#000000" class="active-path" data-old_color="#FCFCFC" fill="#FFFFFF"/></g> </svg>
