<svg xmlns="http://www.w3.org/2000/svg" height="512pt" version="1.1" viewBox="0 0 512 512" width="512pt">
<g id="surface1">
<path d="M 512 256 C 512 397.386719 397.386719 512 256 512 C 114.613281 512 0 397.386719 0 256 C 0 114.613281 114.613281 0 256 0 C 397.386719 0 512 114.613281 512 256 Z M 512 256 " style=" stroke:none;fill-rule:nonzero;fill:rgb(35.294118%,32.941176%,87.843137%);fill-opacity:1;" />
<path d="M 512 256 C 512 240.195312 510.558594 224.730469 507.816406 209.71875 L 388.527344 90.429688 L 131.390625 425.507812 L 214.519531 508.636719 C 228.023438 510.835938 241.875 512 256 512 C 397.386719 512 512 397.386719 512 256 Z M 512 256 " style=" stroke:none;fill-rule:nonzero;fill:rgb(22.745098%,25.490196%,80%);fill-opacity:1;" />
<path d="M 353.628906 436.800781 L 205.964844 436.800781 C 179.65625 436.800781 158.332031 415.476562 158.332031 389.171875 L 158.332031 122.828125 C 158.332031 96.523438 179.65625 75.199219 205.964844 75.199219 L 353.628906 75.199219 C 379.933594 75.199219 401.257812 96.523438 401.257812 122.828125 L 401.257812 389.171875 C 401.261719 415.476562 379.933594 436.800781 353.628906 436.800781 Z M 353.628906 436.800781 " style=" stroke:none;fill-rule:nonzero;fill:rgb(99.607843%,41.568627%,8.627451%);fill-opacity:1;" />
<path d="M 340.613281 415.382812 L 218.976562 415.382812 C 196.371094 415.382812 178.046875 397.058594 178.046875 374.453125 L 178.046875 137.546875 C 178.046875 114.941406 196.371094 96.617188 218.976562 96.617188 L 340.613281 96.617188 C 363.21875 96.617188 381.546875 114.941406 381.546875 137.546875 L 381.546875 374.453125 C 381.546875 397.058594 363.21875 415.382812 340.613281 415.382812 Z M 340.613281 415.382812 " style=" stroke:none;fill-rule:nonzero;fill:rgb(94.901961%,27.058824%,0%);fill-opacity:1;" />
<path d="M 309.835938 436.800781 L 162.164062 436.800781 C 135.859375 436.800781 114.535156 415.476562 114.535156 389.171875 L 114.535156 122.828125 C 114.535156 96.523438 135.859375 75.199219 162.164062 75.199219 L 309.832031 75.199219 C 336.136719 75.199219 357.460938 96.523438 357.460938 122.828125 L 357.460938 389.171875 C 357.464844 415.476562 336.140625 436.800781 309.835938 436.800781 Z M 309.835938 436.800781 " style=" stroke:none;fill-rule:nonzero;fill:rgb(100%,100%,100%);fill-opacity:1;" />
<path d="M 309.832031 75.199219 L 236 75.199219 L 236 436.800781 L 309.832031 436.800781 C 336.136719 436.800781 357.464844 415.476562 357.464844 389.171875 L 357.464844 122.828125 C 357.464844 96.523438 336.140625 75.199219 309.832031 75.199219 Z M 309.832031 75.199219 " style=" stroke:none;fill-rule:nonzero;fill:rgb(91.372549%,92.941176%,96.078431%);fill-opacity:1;" />
<path d="M 301.832031 252.167969 C 301.832031 215.808594 236 149.667969 236 149.667969 C 236 149.667969 170.167969 215.808594 170.167969 252.167969 C 170.167969 278.160156 203.816406 287.859375 223 291.273438 L 223 307.589844 C 223 319.414062 213.414062 329 201.589844 329 L 187.667969 329 L 187.667969 350.332031 L 284.335938 350.332031 L 284.335938 329 L 270.410156 329 C 258.585938 329 249 319.414062 249 307.589844 L 249 291.273438 C 268.183594 287.855469 301.832031 278.160156 301.832031 252.167969 Z M 301.832031 252.167969 " style=" stroke:none;fill-rule:nonzero;fill:rgb(20%,22.352941%,25.098039%);fill-opacity:1;" />
<path d="M 301.832031 252.167969 C 301.832031 215.808594 236 149.667969 236 149.667969 L 236 350.335938 L 284.332031 350.335938 L 284.332031 329 L 270.40625 329 C 258.585938 329 249 319.414062 249 307.589844 L 249 291.273438 C 268.183594 287.855469 301.832031 278.160156 301.832031 252.167969 Z M 301.832031 252.167969 " style=" stroke:none;fill-rule:nonzero;fill:rgb(13.72549%,15.294118%,16.862745%);fill-opacity:1;" />
<path d="M 177.664062 118.667969 C 177.664062 129.34375 169.011719 138 158.332031 138 C 147.65625 138 139 129.34375 139 118.667969 C 139 107.988281 147.65625 99.335938 158.332031 99.335938 C 169.011719 99.335938 177.664062 107.988281 177.664062 118.667969 Z M 177.664062 118.667969 " style=" stroke:none;fill-rule:nonzero;fill:rgb(20%,22.352941%,25.098039%);fill-opacity:1;" />
<path d="M 333.664062 391.332031 C 333.664062 402.011719 325.011719 410.664062 314.332031 410.664062 C 303.65625 410.664062 295 402.011719 295 391.332031 C 295 380.65625 303.65625 372 314.332031 372 C 325.011719 372 333.664062 380.65625 333.664062 391.332031 Z M 333.664062 391.332031 " style=" stroke:none;fill-rule:nonzero;fill:rgb(13.72549%,15.294118%,16.862745%);fill-opacity:1;" />
</g>
</svg>