<?xml version="1.0" encoding="iso-8859-1"?>
<!-- Generator: Adobe Illustrator 19.0.0, SVG Export Plug-In . SVG Version: 6.00 Build 0)  -->
<svg version="1.1" id="Layer_1" xmlns="http://www.w3.org/2000/svg" xmlns:xlink="http://www.w3.org/1999/xlink" x="0px" y="0px"
	 viewBox="0 0 509.287 509.287" style="enable-background:new 0 0 509.287 509.287;" xml:space="preserve">
<circle style="fill:#4F5565;" cx="254.644" cy="254.644" r="254.644"/>
<rect x="58.66" y="211.242" style="fill:#F5EA0A;" width="391.968" height="265.155"/>
<polygon style="fill:#F8B517;" points="254.644,32.551 58.66,211.242 254.644,390.273 450.628,211.242 "/>
<polygon style="fill:#FCFCFD;" points="104.095,252.609 250.236,386.204 259.052,386.204 405.192,252.609 405.192,86.803 
	104.095,86.803 "/>
<rect x="150.887" y="132.238" style="fill:#71D456;" width="207.174" height="14.241"/>
<g>
	<rect x="150.887" y="171.91" style="fill:#F1F3F7;" width="207.174" height="14.241"/>
	<rect x="150.887" y="214.972" style="fill:#F1F3F7;" width="207.174" height="14.241"/>
	<rect x="150.887" y="258.034" style="fill:#F1F3F7;" width="207.174" height="14.241"/>
	<polygon style="fill:#F1F3F7;" points="352.636,300.758 156.652,300.758 172.249,315.338 337.038,315.338 	"/>
	<polygon style="fill:#F1F3F7;" points="305.505,343.82 203.783,343.82 219.38,358.061 289.907,358.061 	"/>
</g>
<polygon style="fill:#FBD303;" points="287.534,359.078 221.754,359.078 58.66,476.736 450.628,476.736 "/>
<g>
</g>
<g>
</g>
<g>
</g>
<g>
</g>
<g>
</g>
<g>
</g>
<g>
</g>
<g>
</g>
<g>
</g>
<g>
</g>
<g>
</g>
<g>
</g>
<g>
</g>
<g>
</g>
<g>
</g>
</svg>
