<?xml version="1.0" encoding="iso-8859-1"?>
<!-- Generator: Adobe Illustrator 19.0.0, SVG Export Plug-In . SVG Version: 6.00 Build 0)  -->
<svg version="1.1" id="Layer_1" xmlns="http://www.w3.org/2000/svg" xmlns:xlink="http://www.w3.org/1999/xlink" x="0px" y="0px"
	 viewBox="0 0 499.6 499.6" style="enable-background:new 0 0 499.6 499.6;" xml:space="preserve">
<circle style="fill:#FF8571;" cx="249.6" cy="299.2" r="200"/>
<path style="fill:#ED5B3A;" d="M249.6,99.2c110.4,0,200,89.6,200,200s-89.6,200-200,200"/>
<path style="fill:#890606;" d="M391.2,157.6c78.4,78.4,78.4,204.8,0,283.2s-204.8,78.4-283.2,0"/>
<circle style="fill:#EEFCFF;" cx="249.6" cy="299.2" r="164"/>
<path style="fill:#DEF0F9;" d="M249.6,136c90.4,0,164,73.6,164,164s-73.6,164-164,164"/>
<circle style="fill:#19D893;" cx="249.6" cy="299.2" r="16"/>
<g>
	<path style="fill:#04AF76;" d="M260.8,288c6.4,6.4,6.4,16,0,22.4s-16,6.4-22.4,0"/>
	<path style="fill:#04AF76;" d="M253.6,196c0,1.6-1.6,3.2-3.2,3.2H248c-1.6,0-3.2-1.6-3.2-3.2v-33.6c0-1.6,1.6-3.2,3.2-3.2h2.4
		c1.6,0,3.2,1.6,3.2,3.2V196z"/>
	<path style="fill:#04AF76;" d="M253.6,436.8c0,1.6-1.6,3.2-3.2,3.2H248c-1.6,0-3.2-1.6-3.2-3.2v-33.6c0-1.6,1.6-3.2,3.2-3.2h2.4
		c1.6,0,3.2,1.6,3.2,3.2V436.8z"/>
	<path style="fill:#04AF76;" d="M352.8,304c-1.6,0-3.2-2.4-3.2-4l0,0c0-1.6,1.6-4,3.2-4H388c1.6,0,3.2,2.4,3.2,4l0,0
		c0,1.6-1.6,4-3.2,4H352.8z"/>
	<path style="fill:#04AF76;" d="M153.6,300.8c0,1.6-1.6,3.2-3.2,3.2H116c-1.6,0-3.2-1.6-3.2-3.2v-1.6c0-1.6,1.6-3.2,3.2-3.2h34.4
		c1.6,0,3.2,1.6,3.2,3.2V300.8z"/>
	<path style="fill:#04AF76;" d="M324.8,228.8c-0.8,0.8-3.2,0.8-4,0l0,0c-0.8-0.8-0.8-3.2,0-4l24.8-24.8c0.8-0.8,3.2-0.8,4,0l0,0
		c0.8,0.8,0.8,3.2,0,4L324.8,228.8z"/>
	<path style="fill:#04AF76;" d="M154.4,399.2c-0.8,0.8-3.2,0.8-4,0l0,0c-0.8-0.8-0.8-3.2,0-4l24.8-24.8c0.8-0.8,3.2-0.8,4,0l0,0
		c0.8,0.8,0.8,3.2,0,4L154.4,399.2z"/>
	<path style="fill:#04AF76;" d="M320,374.4c-0.8-0.8-0.8-3.2,0-4l0,0c0.8-0.8,3.2-0.8,4,0l24.8,24.8c0.8,0.8,0.8,3.2,0,4l0,0
		c-0.8,0.8-3.2,0.8-4,0L320,374.4z"/>
	<path style="fill:#04AF76;" d="M149.6,204c-0.8-0.8-0.8-3.2,0-4l0,0c0.8-0.8,3.2-0.8,4,0l24.8,24.8c0.8,0.8,0.8,3.2,0,4l0,0
		c-0.8,0.8-3.2,0.8-4,0L149.6,204z"/>
</g>
<path style="fill:#19D893;" d="M253.6,290.4c0,2.4,0,5.6-2.4,5.6l0,0c-2.4,0-5.6-3.2-5.6-5.6v-68.8c0-2.4,1.6-5.6,4-5.6l0,0
	c2.4,0,4,3.2,4,5.6V290.4z"/>
<path style="fill:#04AF76;" d="M253.6,304c-1.6,0-2.4-1.6-2.4-4l0,0c0-2.4,1.6-4,2.4-4h43.2c1.6,0,2.4,1.6,2.4,4l0,0
	c0,2.4-1.6,4-2.4,4H253.6z"/>
<path style="fill:#ED5B3A;" d="M303.2,36c0,21.6-17.6,36-39.2,36h-28.8C213.6,72,196,57.6,196,36l0,0c0-21.6,17.6-36,39.2-36H264
	C285.6,0,303.2,14.4,303.2,36L303.2,36z"/>
<path style="fill:#890606;" d="M233.6,0H264c21.6,0,39.2,14.4,39.2,36l0,0c0,21.6-18.4,36-40,36"/>
<g>
</g>
<g>
</g>
<g>
</g>
<g>
</g>
<g>
</g>
<g>
</g>
<g>
</g>
<g>
</g>
<g>
</g>
<g>
</g>
<g>
</g>
<g>
</g>
<g>
</g>
<g>
</g>
<g>
</g>
</svg>
